<svg xmlns="http://www.w3.org/2000/svg" viewBox="0 0 1470 1050" fill="none" role="img" aria-label="Mizuki">
  <path fill="currentColor" d="M38 0h554a38 38 0 0 1 38 38v134a38 38 0 0 0 38 38h134a38 38 0 0 0 38-38V38a38 38 0 0 1 38-38h344a38 38 0 0 1 38 38v134a38 38 0 0 0 38 38h134a38 38 0 0 1 38 38v764a38 38 0 0 1-38 38h-134a38 38 0 0 1-38-38V248a38 38 0 0 0-38-38H878a38 38 0 0 0-38 38v764a38 38 0 0 1-38 38H668a38 38 0 0 1-38-38V248a38 38 0 0 0-38-38H248a38 38 0 0 0-38 38v764a38 38 0 0 1-38 38H38a38 38 0 0 1-38-38V38a38 38 0 0 1 38-38Z"/>
</svg>
